<?xml version="1.0" standalone="no"?>
<!DOCTYPE svg PUBLIC "-//W3C//DTD SVG 20010904//EN"
 "http://www.w3.org/TR/2001/REC-SVG-20010904/DTD/svg10.dtd">
<svg version="1.0" xmlns="http://www.w3.org/2000/svg"
 width="32.000000pt" height="32.000000pt" viewBox="0 0 32.000000 32.000000"
 preserveAspectRatio="xMidYMid meet">

<g transform="translate(0.000000,32.000000) scale(0.100000,-0.100000)"
fill="#000000" stroke="none">
<path d="M52 268 c-28 -28 4 -77 41 -62 22 8 28 42 10 59 -18 18 -35 19 -51 3z
m42 -16 c2 -4 1 -14 -4 -22 -7 -11 -12 -12 -21 -3 -6 6 -8 16 -5 22 8 13 23
14 30 3z"/>
<path d="M135 179 c-13 -24 -19 -28 -30 -19 -19 16 -30 7 -61 -50 -15 -28 -31
-50 -36 -50 -4 0 -8 -4 -8 -10 0 -6 60 -10 160 -10 100 0 160 4 160 10 0 6 -4
10 -10 10 -5 0 -17 14 -25 31 -11 21 -21 28 -33 25 -12 -4 -24 8 -44 44 -32
58 -51 63 -73 19z m66 -44 c24 -43 35 -54 49 -50 11 3 20 0 24 -10 5 -13 -11
-15 -115 -15 l-119 0 20 40 c22 42 29 47 47 29 9 -9 17 -3 33 25 12 20 24 36
26 36 2 0 18 -25 35 -55z"/>
</g>
</svg>
